# xmcd
#
# Track frame offsets: 
#        150
#        16986
#        34241
#        50609
#        68582
#        86245
#        100513
#        119208
#        132943
#        149480
#        164971
#        185265
#        198959
#
# Disc length: 2917 seconds
#
# Revision: 1
# Processed by: cddbd v1.5.2PL0 Copyright (c) Steve Scherf et al.
# Submitted via: ExactAudioCopyFreeDBPlugin 1.0
#
DISCID=c00b630d
DTITLE=Sanne Salomonsen - Tiden Brænder
DYEAR=2011
DGENRE=Country
TTITLE0=Dæmoner
TTITLE1=Tiden Brænder
TTITLE2=Over Det
TTITLE3=Små Soldater
TTITLE4=Minder
TTITLE5=Hjem
TTITLE6=Søvngænger
TTITLE7=Rock ´n´ Roll
TTITLE8=Ingenmandsland
TTITLE9=Emily
TTITLE10=Drømmenes By
TTITLE11=Hvis Du Tør
TTITLE12=Lissabon
EXTD=YEAR: 2011
EXTT0=
EXTT1=
EXTT2=
EXTT3=
EXTT4=
EXTT5=
EXTT6=
EXTT7=
EXTT8=
EXTT9=
EXTT10=
EXTT11=
EXTT12=
PLAYORDER=
